<?xml version="1.0" encoding="utf-8"?>
<!-- Generator: Adobe Illustrator 25.2.3, SVG Export Plug-In . SVG Version: 6.00 Build 0)  -->
<svg version="1.1" id="Layer_1" xmlns="http://www.w3.org/2000/svg" xmlns:xlink="http://www.w3.org/1999/xlink" x="0px" y="0px"
	 viewBox="0 0 257.5 63.1" style="enable-background:new 0 0 257.5 63.1;" xml:space="preserve">
<style type="text/css">
	.st0{fill:#FFFFFF;}
	.st1{display:none;}
	.st2{display:inline;fill:#FFFFFF;}
	.st3{display:inline;fill:#FFFFFF;stroke:#000000;stroke-width:2;stroke-miterlimit:10;}
</style>
<g id="Layer_1_1_">
	<g>
		<path class="st0" d="M36.8,28.8l-5.9-6.9L25,28.8l-4.7-4l6.6-7.7l-9.3-11L19.9,1h22l2.4,5.1L35,17l6.6,7.7L36.8,28.8z M26.7,7.2
			l4.3,5l4.3-5H26.7z"/>
		<path class="st0" d="M61.6,47.1L56,13.8H39.4L36.6,17l2.5,2.9h11.6l4.8,28.2c0.4,2.2-0.2,4.4-1.7,6.1c-1.4,1.7-3.5,2.7-5.7,2.7
			H13.7c-2.2,0-4.3-1-5.7-2.7s-2-3.9-1.7-6.1L11.1,20h11.6l2.5-2.9l-2.8-3.3H5.9L0.2,47.1c-0.7,4,0.4,8.1,3,11.2s6.4,4.9,10.5,4.9
			H48c4.1,0,7.9-1.8,10.5-4.9C61.2,55.2,62.3,51.1,61.6,47.1z"/>
		<g class="st1">
			<circle class="st2" cx="45.8" cy="27.6" r="3.7"/>
			<circle class="st2" cx="16" cy="27.6" r="3.7"/>
			<path class="st3" d="M45.8,27.6c0,9.7-6.7,17.5-14.9,17.5S16,37.3,16,27.6"/>
		</g>
		<circle class="st0" cx="31.3" cy="31" r="2.8"/>
		<circle class="st0" cx="31.3" cy="39.2" r="2.8"/>
	</g>
	<g>
		<path class="st0" d="M69.7,61.1v-42h6.8v24.3l12.4-11.8h7.8l-12,11.9l12.7,17.6h-7.2l-9.8-14l-3.9,3.7v10.3H69.7z"/>
		<path class="st0" d="M109,61.8c-1.9,0-3.6-0.3-5.2-1s-2.9-1.7-3.8-3c-1-1.3-1.4-3-1.4-5c0-2.8,1-5.1,2.9-6.8s4.9-2.6,8.9-2.6h9.5
			V42c0-1.4-0.2-2.5-0.7-3.4c-0.4-0.8-1.2-1.4-2.4-1.8c-1.1-0.4-2.8-0.6-5-0.6c-3.5,0-6.7,0.5-9.8,1.6v-5c1.3-0.5,2.9-1,4.9-1.3
			c1.9-0.3,4-0.5,6.2-0.5c4.3,0,7.6,0.9,9.9,2.6c2.3,1.7,3.4,4.6,3.4,8.5v19h-5.8l-0.4-3c-1.2,1.2-2.7,2.1-4.5,2.7
			C113.8,61.4,111.6,61.8,109,61.8z M110.8,56.9c2,0,3.8-0.3,5.3-1s2.8-1.6,3.7-2.8v-5.2h-9.3c-2,0-3.4,0.4-4.3,1.2
			s-1.3,1.9-1.3,3.5c0,1.5,0.5,2.6,1.6,3.3C107.4,56.6,108.9,56.9,110.8,56.9z"/>
		<path class="st0" d="M143.7,61.8c-2,0-4-0.1-5.8-0.4c-1.8-0.3-3.4-0.6-4.6-1.1v-5.7c1.4,0.5,3,1,4.7,1.2c1.7,0.3,3.3,0.4,4.9,0.4
			c2.3,0,4-0.2,5-0.6c1-0.4,1.5-1.2,1.5-2.4c0-0.9-0.3-1.6-0.9-2.1c-0.6-0.5-1.5-1-2.7-1.4s-2.7-0.9-4.5-1.5
			c-1.7-0.6-3.3-1.2-4.5-1.9c-1.3-0.7-2.3-1.6-3-2.6c-0.7-1.1-1.1-2.5-1.1-4.2c0-2.7,1-4.8,2.9-6.3c2-1.5,5.1-2.2,9.4-2.2
			c1.7,0,3.3,0.1,4.9,0.4s2.8,0.6,3.9,0.9V38c-1.2-0.5-2.4-0.8-3.8-1.1c-1.4-0.2-2.7-0.4-3.9-0.4c-2.2,0-3.8,0.2-4.9,0.6
			c-1.1,0.4-1.7,1.1-1.7,2.2c0,1.2,0.6,2,1.7,2.5c1.1,0.5,3,1.1,5.5,2c2.3,0.7,4.2,1.5,5.5,2.2c1.4,0.8,2.4,1.7,3,2.8
			s0.9,2.5,0.9,4.3c0,2.9-1.1,5.1-3.2,6.5C150.8,61,147.7,61.8,143.7,61.8z"/>
		<path class="st0" d="M171,61.8c-2,0-4-0.1-5.8-0.4c-1.8-0.3-3.4-0.6-4.6-1.1v-5.7c1.4,0.5,3,1,4.7,1.2c1.7,0.3,3.3,0.4,4.9,0.4
			c2.3,0,4-0.2,5-0.6c1-0.4,1.5-1.2,1.5-2.4c0-0.9-0.3-1.6-0.9-2.1c-0.6-0.5-1.5-1-2.7-1.4s-2.7-0.9-4.5-1.5
			c-1.7-0.6-3.3-1.2-4.5-1.9c-1.3-0.7-2.3-1.6-3-2.6c-0.7-1.1-1.1-2.5-1.1-4.2c0-2.7,1-4.8,2.9-6.3c2-1.5,5.1-2.2,9.4-2.2
			c1.7,0,3.3,0.1,4.9,0.4s2.8,0.6,3.9,0.9V38c-1.2-0.5-2.4-0.8-3.8-1.1c-1.4-0.2-2.7-0.4-3.9-0.4c-2.2,0-3.8,0.2-4.9,0.6
			c-1.1,0.4-1.7,1.1-1.7,2.2c0,1.2,0.6,2,1.7,2.5c1.1,0.5,3,1.1,5.5,2c2.3,0.7,4.2,1.5,5.5,2.2c1.4,0.8,2.4,1.7,3,2.8
			s0.9,2.5,0.9,4.3c0,2.9-1.1,5.1-3.2,6.5C178.1,61,175,61.8,171,61.8z"/>
		<path class="st0" d="M193.8,61.1L186,31.6h6.8l5.1,21.5l5.8-17.9v-3.6h5.2l6.4,21.5l5.1-21.5h6.7l-7.7,29.5H213l-6.3-19.3
			l-6.4,19.3H193.8z"/>
		<path class="st0" d="M240.2,61.8c-1.9,0-3.6-0.3-5.2-1c-1.6-0.7-2.9-1.7-3.8-3c-1-1.3-1.4-3-1.4-5c0-2.8,1-5.1,2.9-6.8
			s4.9-2.6,8.9-2.6h9.5V42c0-1.4-0.2-2.5-0.7-3.4c-0.4-0.8-1.2-1.4-2.4-1.8c-1.1-0.4-2.8-0.6-5-0.6c-3.5,0-6.7,0.5-9.8,1.6v-5
			c1.3-0.5,2.9-1,4.9-1.3c1.9-0.3,4-0.5,6.2-0.5c4.3,0,7.6,0.9,9.9,2.6c2.3,1.7,3.4,4.6,3.4,8.5v19h-5.8l-0.4-3
			c-1.2,1.2-2.7,2.1-4.5,2.7C245,61.4,242.8,61.8,240.2,61.8z M242,56.9c2,0,3.8-0.3,5.3-1s2.8-1.6,3.7-2.8v-5.2h-9.3
			c-2,0-3.4,0.4-4.3,1.2c-0.9,0.8-1.3,1.9-1.3,3.5c0,1.5,0.5,2.6,1.6,3.3C238.6,56.6,240.1,56.9,242,56.9z"/>
	</g>
</g>
<g id="logo_above_text">
</g>
<g id="only_logo">
</g>
</svg>
