<?xml version="1.0" encoding="utf-8"?>
<!-- Generator: Adobe Illustrator 25.2.3, SVG Export Plug-In . SVG Version: 6.00 Build 0)  -->
<svg version="1.1" xmlns="http://www.w3.org/2000/svg" xmlns:xlink="http://www.w3.org/1999/xlink" x="0px" y="0px"
	 viewBox="0 0 61.8 62.1" style="enable-background:new 0 0 61.8 62.1;" xml:space="preserve">
<style type="text/css">
	.st0{display:none;}
	.st1{display:inline;}
	.st2{display:inline;fill:none;stroke:#000000;stroke-width:2;stroke-miterlimit:10;}
</style>
<g id="Layer_1">
</g>
<g id="logo_above_text">
</g>
<g id="only_logo">
	<g>
		<path d="M36.8,27.8l-5.9-6.9L25,27.8l-4.7-4l6.6-7.7L17.6,5.1L19.9,0h22l2.4,5.1L35,16l6.6,7.7L36.8,27.8z M26.7,6.2l4.3,5l4.3-5
			H26.7z"/>
		<path d="M61.6,46.1L56,12.8H39.4L36.6,16l2.5,2.9h11.6l4.8,28.2c0.4,2.2-0.2,4.4-1.7,6.1c-1.4,1.7-3.5,2.7-5.7,2.7H13.7
			c-2.2,0-4.3-1-5.7-2.7c-1.4-1.7-2-3.9-1.7-6.1L11.1,19h11.6l2.5-2.9l-2.8-3.3H5.9L0.2,46.1c-0.7,4,0.4,8.1,3,11.2
			s6.4,4.9,10.5,4.9h34.3c4.1,0,7.9-1.8,10.5-4.9C61.2,54.2,62.3,50.1,61.6,46.1z"/>
		<g class="st0">
			<circle class="st1" cx="45.8" cy="26.6" r="3.7"/>
			<circle class="st1" cx="16" cy="26.6" r="3.7"/>
			<path class="st2" d="M45.8,26.6c0,9.7-6.7,17.5-14.9,17.5S16,36.3,16,26.6"/>
		</g>
		<circle cx="31.3" cy="30" r="2.8"/>
		<circle cx="31.3" cy="38.2" r="2.8"/>
	</g>
</g>
</svg>
