<svg xmlns="http://www.w3.org/2000/svg" viewBox="0 0 24 24"><g id="only_logo" data-name="only logo"><path d="M14.28,10.73,12,8.05,9.72,10.73,7.89,9.18l2.53-3L6.84,2l.91-2h8.5l.91,2L13.58,6.19l2.53,3ZM10.35,2.4,12,4.34,13.65,2.4Z"/><path d="M23.87,17.8,21.68,4.93H15.29L14.21,6.19l1,1.14h4.48L21.5,18.21a2.91,2.91,0,0,1-2.87,3.39H5.37A2.91,2.91,0,0,1,2.5,18.21L4.35,7.33H8.83l1-1.14L8.71,4.93H2.32L.13,17.8A5.31,5.31,0,0,0,5.37,24H18.63a5.31,5.31,0,0,0,5.24-6.2Z"/><circle cx="12.15" cy="11.59" r="1.08"/><circle cx="12.15" cy="14.77" r="1.08"/></g></svg>