<?xml version="1.0" encoding="utf-8"?>
<!-- Generator: Adobe Illustrator 25.2.3, SVG Export Plug-In . SVG Version: 6.00 Build 0)  -->
<svg version="1.1" id="Layer_1" xmlns="http://www.w3.org/2000/svg" xmlns:xlink="http://www.w3.org/1999/xlink" x="0px" y="0px"
	 viewBox="0 0 264.6 62.2" style="enable-background:new 0 0 264.6 62.2;" xml:space="preserve">
<style type="text/css">
	.st0{display:none;}
	.st1{display:inline;}
	.st2{display:inline;fill:none;stroke:#000000;stroke-width:2;stroke-miterlimit:10;}
</style>
<g>
	<path d="M36.8,27.8l-5.9-6.9L25,27.8l-4.7-4l6.6-7.7l-9.3-11L19.9,0h22l2.4,5.1L35,16l6.6,7.7L36.8,27.8z M26.7,6.2l4.3,5l4.3-5
		H26.7z"/>
	<path d="M61.6,46.1L56,12.8H39.4L36.6,16l2.5,2.9h11.6l4.8,28.2c0.4,2.2-0.2,4.4-1.7,6.1c-1.4,1.7-3.5,2.7-5.7,2.7H13.7
		c-2.2,0-4.3-1-5.7-2.7s-2-3.9-1.7-6.1L11.1,19h11.6l2.5-2.9l-2.8-3.3H5.9L0.2,46.1c-0.7,4,0.4,8.1,3,11.2s6.4,4.9,10.5,4.9H48
		c4.1,0,7.9-1.8,10.5-4.9C61.2,54.2,62.3,50.1,61.6,46.1z"/>
	<g class="st0">
		<circle class="st1" cx="45.8" cy="26.6" r="3.7"/>
		<circle class="st1" cx="16" cy="26.6" r="3.7"/>
		<path class="st2" d="M45.8,26.6c0,9.7-6.7,17.5-14.9,17.5S16,36.3,16,26.6"/>
	</g>
	<circle cx="31.3" cy="30" r="2.8"/>
	<circle cx="31.3" cy="38.2" r="2.8"/>
</g>
<g>
	<path d="M76.7,60.1v-42h6.8v24.3l12.4-11.8h7.8l-12,11.9l12.7,17.6h-7.2l-9.8-14l-3.9,3.7v10.3H76.7z"/>
	<path d="M116,60.8c-1.9,0-3.6-0.3-5.2-1s-2.9-1.7-3.8-3c-1-1.3-1.4-3-1.4-5c0-2.8,1-5.1,2.9-6.8s4.9-2.6,8.9-2.6h9.5V41
		c0-1.4-0.2-2.5-0.7-3.4c-0.4-0.8-1.2-1.4-2.4-1.8c-1.1-0.4-2.8-0.6-5-0.6c-3.5,0-6.7,0.5-9.8,1.6v-5c1.3-0.5,2.9-1,4.9-1.3
		c1.9-0.3,4-0.5,6.2-0.5c4.3,0,7.6,0.9,9.9,2.6c2.3,1.7,3.4,4.6,3.4,8.5v19h-5.8l-0.4-3c-1.2,1.2-2.7,2.1-4.5,2.7
		C120.8,60.4,118.6,60.8,116,60.8z M117.8,55.9c2,0,3.8-0.3,5.3-1s2.8-1.6,3.7-2.8v-5.2h-9.3c-2,0-3.4,0.4-4.3,1.2s-1.3,1.9-1.3,3.5
		c0,1.5,0.5,2.6,1.6,3.3C114.4,55.6,115.9,55.9,117.8,55.9z"/>
	<path d="M150.7,60.8c-2,0-4-0.1-5.8-0.4c-1.8-0.3-3.4-0.6-4.6-1.1v-5.7c1.4,0.5,3,1,4.7,1.2c1.7,0.3,3.3,0.4,4.9,0.4
		c2.3,0,4-0.2,5-0.6c1-0.4,1.5-1.2,1.5-2.4c0-0.9-0.3-1.6-0.9-2.1c-0.6-0.5-1.5-1-2.7-1.4s-2.7-0.9-4.5-1.5
		c-1.7-0.6-3.3-1.2-4.5-1.9c-1.3-0.7-2.3-1.6-3-2.6c-0.7-1.1-1.1-2.5-1.1-4.2c0-2.7,1-4.8,2.9-6.3c2-1.5,5.1-2.2,9.4-2.2
		c1.7,0,3.3,0.1,4.9,0.4s2.8,0.6,3.9,0.9V37c-1.2-0.5-2.4-0.8-3.8-1.1c-1.4-0.2-2.7-0.4-3.9-0.4c-2.2,0-3.8,0.2-4.9,0.6
		c-1.1,0.4-1.7,1.1-1.7,2.2c0,1.2,0.6,2,1.7,2.5c1.1,0.5,3,1.1,5.5,2c2.3,0.7,4.2,1.5,5.5,2.2c1.4,0.8,2.4,1.7,3,2.8
		s0.9,2.5,0.9,4.3c0,2.9-1.1,5.1-3.2,6.5C157.8,60,154.7,60.8,150.7,60.8z"/>
	<path d="M178,60.8c-2,0-4-0.1-5.8-0.4c-1.8-0.3-3.4-0.6-4.6-1.1v-5.7c1.4,0.5,3,1,4.7,1.2c1.7,0.3,3.3,0.4,4.9,0.4
		c2.3,0,4-0.2,5-0.6c1-0.4,1.5-1.2,1.5-2.4c0-0.9-0.3-1.6-0.9-2.1c-0.6-0.5-1.5-1-2.7-1.4s-2.7-0.9-4.5-1.5
		c-1.7-0.6-3.3-1.2-4.5-1.9c-1.3-0.7-2.3-1.6-3-2.6c-0.7-1.1-1.1-2.5-1.1-4.2c0-2.7,1-4.8,2.9-6.3c2-1.5,5.1-2.2,9.4-2.2
		c1.7,0,3.3,0.1,4.9,0.4s2.8,0.6,3.9,0.9V37c-1.2-0.5-2.4-0.8-3.8-1.1c-1.4-0.2-2.7-0.4-3.9-0.4c-2.2,0-3.8,0.2-4.9,0.6
		c-1.1,0.4-1.7,1.1-1.7,2.2c0,1.2,0.6,2,1.7,2.5c1.1,0.5,3,1.1,5.5,2c2.3,0.7,4.2,1.5,5.5,2.2c1.4,0.8,2.4,1.7,3,2.8
		s0.9,2.5,0.9,4.3c0,2.9-1.1,5.1-3.2,6.5C185.1,60,182,60.8,178,60.8z"/>
	<path d="M200.8,60.1L193,30.6h6.8l5.1,21.5l5.8-17.9v-3.6h5.2l6.4,21.5l5.1-21.5h6.7l-7.7,29.5H220l-6.3-19.3l-6.4,19.3H200.8z"/>
	<path d="M247.2,60.8c-1.9,0-3.6-0.3-5.2-1c-1.6-0.7-2.9-1.7-3.8-3c-1-1.3-1.4-3-1.4-5c0-2.8,1-5.1,2.9-6.8s4.9-2.6,8.9-2.6h9.5V41
		c0-1.4-0.2-2.5-0.7-3.4c-0.4-0.8-1.2-1.4-2.4-1.8c-1.1-0.4-2.8-0.6-5-0.6c-3.5,0-6.7,0.5-9.8,1.6v-5c1.3-0.5,2.9-1,4.9-1.3
		c1.9-0.3,4-0.5,6.2-0.5c4.3,0,7.6,0.9,9.9,2.6c2.3,1.7,3.4,4.6,3.4,8.5v19h-5.8l-0.4-3c-1.2,1.2-2.7,2.1-4.5,2.7
		C252,60.4,249.8,60.8,247.2,60.8z M249,55.9c2,0,3.8-0.3,5.3-1s2.8-1.6,3.7-2.8v-5.2h-9.3c-2,0-3.4,0.4-4.3,1.2
		c-0.9,0.8-1.3,1.9-1.3,3.5c0,1.5,0.5,2.6,1.6,3.3C245.6,55.6,247.1,55.9,249,55.9z"/>
</g>
</svg>
