<?xml version="1.0" encoding="utf-8"?>
<!-- Generator: Adobe Illustrator 25.2.3, SVG Export Plug-In . SVG Version: 6.00 Build 0)  -->
<svg version="1.1" xmlns="http://www.w3.org/2000/svg" xmlns:xlink="http://www.w3.org/1999/xlink" x="0px" y="0px"
	 viewBox="0 0 187.7 100.4" style="enable-background:new 0 0 187.7 100.4;" xml:space="preserve">
<style type="text/css">
	.st0{display:none;}
	.st1{display:inline;}
	.st2{display:inline;fill:none;stroke:#000000;stroke-width:2;stroke-miterlimit:10;}
</style>
<g id="Layer_1">
</g>
<g id="logo_above_text">
	<g>
		<path d="M99.8,28.8l-5.9-6.9L88,28.8l-4.7-4l6.6-7.7L80.5,6.1L82.9,1h22l2.4,5.1L98,17l6.6,7.7L99.8,28.8z M89.6,7.2l4.3,5l4.3-5
			H89.6z"/>
		<path d="M124.6,47.1l-5.7-33.3h-16.6L99.6,17l2.5,2.9h11.6l4.8,28.2c0.4,2.2-0.2,4.4-1.7,6.1c-1.4,1.7-3.5,2.7-5.7,2.7H76.7
			c-2.2,0-4.3-1-5.7-2.7c-1.4-1.7-2-3.9-1.7-6.1L74.1,20h11.6l2.5-2.9l-2.8-3.3H68.8l-5.7,33.3c-0.7,4,0.4,8.1,3,11.2
			s6.4,4.9,10.5,4.9H111c4.1,0,7.9-1.8,10.5-4.9C124.2,55.2,125.3,51.1,124.6,47.1z"/>
		<g class="st0">
			<circle class="st1" cx="108.8" cy="27.6" r="3.7"/>
			<circle class="st1" cx="78.9" cy="27.6" r="3.7"/>
			<path class="st2" d="M108.8,27.6c0,9.7-6.7,17.5-14.9,17.5s-14.9-7.8-14.9-17.5"/>
		</g>
		<circle cx="94.3" cy="31" r="2.8"/>
		<circle cx="94.3" cy="39.2" r="2.8"/>
	</g>
	<g>
		<path d="M0,99.8v-42h6.8v24.3l12.4-11.8H27L15,82.2l12.7,17.6h-7.2l-9.8-14l-3.9,3.7v10.3H0z"/>
		<path d="M39.2,100.4c-1.9,0-3.6-0.3-5.2-1c-1.6-0.7-2.9-1.7-3.8-3c-1-1.3-1.4-3-1.4-5c0-2.8,1-5.1,2.9-6.8
			c1.9-1.7,4.9-2.6,8.9-2.6h9.5v-1.3c0-1.4-0.2-2.5-0.7-3.4c-0.4-0.8-1.2-1.4-2.4-1.8c-1.1-0.4-2.8-0.6-5-0.6
			c-3.5,0-6.7,0.5-9.8,1.6v-5c1.3-0.5,2.9-1,4.9-1.3c1.9-0.3,4-0.5,6.2-0.5c4.3,0,7.6,0.9,9.9,2.6s3.4,4.6,3.4,8.5v19h-5.8l-0.4-3
			c-1.2,1.2-2.7,2.1-4.5,2.7C44.1,100.1,41.9,100.4,39.2,100.4z M41,95.6c2,0,3.8-0.3,5.3-1c1.5-0.7,2.8-1.6,3.7-2.8v-5.2h-9.3
			c-2,0-3.4,0.4-4.3,1.2c-0.9,0.8-1.3,1.9-1.3,3.5c0,1.5,0.5,2.6,1.6,3.3C37.7,95.3,39.1,95.6,41,95.6z"/>
		<path d="M73.9,100.4c-2,0-4-0.1-5.8-0.4c-1.8-0.3-3.4-0.6-4.6-1.1v-5.7c1.4,0.5,3,1,4.7,1.2c1.7,0.3,3.3,0.4,4.9,0.4
			c2.3,0,4-0.2,5-0.6c1-0.4,1.5-1.2,1.5-2.4c0-0.9-0.3-1.6-0.9-2.1c-0.6-0.5-1.5-1-2.7-1.4c-1.2-0.4-2.7-0.9-4.5-1.5
			c-1.7-0.6-3.3-1.2-4.5-1.9c-1.3-0.7-2.3-1.6-3-2.6c-0.7-1.1-1.1-2.5-1.1-4.2c0-2.7,1-4.8,2.9-6.3c2-1.5,5.1-2.2,9.4-2.2
			c1.7,0,3.3,0.1,4.9,0.4s2.8,0.6,3.9,0.9v5.7c-1.2-0.5-2.4-0.8-3.8-1.1c-1.4-0.2-2.7-0.4-3.9-0.4c-2.2,0-3.8,0.2-4.9,0.6
			c-1.1,0.4-1.7,1.1-1.7,2.2c0,1.2,0.6,2,1.7,2.5c1.1,0.5,3,1.1,5.5,2c2.3,0.7,4.2,1.5,5.5,2.2c1.4,0.8,2.4,1.7,3,2.8
			c0.6,1.1,0.9,2.5,0.9,4.3c0,2.9-1.1,5.1-3.2,6.5C81,99.7,78,100.4,73.9,100.4z"/>
		<path d="M101.3,100.4c-2,0-4-0.1-5.8-0.4c-1.8-0.3-3.4-0.6-4.6-1.1v-5.7c1.4,0.5,3,1,4.7,1.2c1.7,0.3,3.3,0.4,4.9,0.4
			c2.3,0,4-0.2,5-0.6c1-0.4,1.5-1.2,1.5-2.4c0-0.9-0.3-1.6-0.9-2.1c-0.6-0.5-1.5-1-2.7-1.4c-1.2-0.4-2.7-0.9-4.5-1.5
			c-1.7-0.6-3.3-1.2-4.5-1.9c-1.3-0.7-2.3-1.6-3-2.6c-0.7-1.1-1.1-2.5-1.1-4.2c0-2.7,1-4.8,2.9-6.3c2-1.5,5.1-2.2,9.4-2.2
			c1.7,0,3.3,0.1,4.9,0.4s2.8,0.6,3.9,0.9v5.7c-1.2-0.5-2.4-0.8-3.8-1.1c-1.4-0.2-2.7-0.4-3.9-0.4c-2.2,0-3.8,0.2-4.9,0.6
			C97.6,76.2,97,76.9,97,78c0,1.2,0.6,2,1.7,2.5c1.1,0.5,3,1.1,5.5,2c2.3,0.7,4.2,1.5,5.5,2.2c1.4,0.8,2.4,1.7,3,2.8
			c0.6,1.1,0.9,2.5,0.9,4.3c0,2.9-1.1,5.1-3.2,6.5C108.4,99.7,105.3,100.4,101.3,100.4z"/>
		<path d="M124.1,99.8l-7.8-29.5h6.8l5.1,21.5l5.8-17.9v-3.6h5.2l6.4,21.5l5.1-21.5h6.7l-7.7,29.5h-6.4L137,80.5l-6.4,19.3H124.1z"
			/>
		<path d="M170.4,100.4c-1.9,0-3.6-0.3-5.2-1c-1.6-0.7-2.9-1.7-3.8-3c-1-1.3-1.4-3-1.4-5c0-2.8,1-5.1,2.9-6.8
			c1.9-1.7,4.9-2.6,8.9-2.6h9.5v-1.3c0-1.4-0.2-2.5-0.7-3.4c-0.4-0.8-1.2-1.4-2.4-1.8c-1.1-0.4-2.8-0.6-5-0.6
			c-3.5,0-6.7,0.5-9.8,1.6v-5c1.3-0.5,2.9-1,4.9-1.3c1.9-0.3,4-0.5,6.2-0.5c4.3,0,7.6,0.9,9.9,2.6s3.4,4.6,3.4,8.5v19h-5.8l-0.4-3
			c-1.2,1.2-2.7,2.1-4.5,2.7C175.3,100.1,173.1,100.4,170.4,100.4z M172.2,95.6c2,0,3.8-0.3,5.3-1c1.5-0.7,2.8-1.6,3.7-2.8v-5.2
			h-9.3c-2,0-3.4,0.4-4.3,1.2c-0.9,0.8-1.3,1.9-1.3,3.5c0,1.5,0.5,2.6,1.6,3.3C168.8,95.3,170.3,95.6,172.2,95.6z"/>
	</g>
</g>
<g id="only_logo">
</g>
</svg>
