<?xml version="1.0" encoding="utf-8"?>
<!-- Generator: Adobe Illustrator 25.2.3, SVG Export Plug-In . SVG Version: 6.00 Build 0)  -->
<svg version="1.1" id="Layer_1" xmlns="http://www.w3.org/2000/svg" xmlns:xlink="http://www.w3.org/1999/xlink" x="0px" y="0px"
	 viewBox="0 0 292.5 64" style="enable-background:new 0 0 292.5 64;" xml:space="preserve">
<g>
	<polygon points="60.3,2.6 54.3,2.6 8.9,41.4 16.7,2.6 12.2,2.6 0,63.6 4.4,63.6 7.7,47.6 24,33.6 44.7,63.6 49.9,63.6 27.3,30.8 	
		"/>
	<path d="M92.2,20.1c-2.8-1.5-6.3-2.3-10.3-2.3c-4.7,0-8.9,1.2-12.7,3.6c-3.7,2.4-6.7,5.6-8.9,9.7S57,39.8,57,45
		c0,4,0.8,7.4,2.5,10.2s4.1,5,7.2,6.6c3.1,1.5,6.8,2.3,11.1,2.3c3.7,0,7.1-0.6,10.2-1.9c3.2-1.2,5.7-2.9,7.7-5.1l-2-3.1
		c-1.7,1.9-4,3.4-6.7,4.5s-5.7,1.6-8.9,1.6c-5.5,0-9.7-1.3-12.6-4c-2.8-2.6-4.3-6.4-4.3-11.4c0-1,0-1.9,0.1-2.9h39.3
		c0.1-0.8,0.2-1.6,0.3-2.4c0.1-0.9,0.2-1.7,0.2-2.6c0-4-0.8-7.4-2.4-10.2C97.2,23.7,95,21.6,92.2,20.1z M63.9,32.7
		c1.7-3.5,4.2-6.2,7.3-8.2c3.1-2,6.6-3,10.6-3c3.4,0,6.4,0.7,8.8,2.1c2.5,1.4,4.3,3.5,5.4,6.2c1,2.4,1.3,5.2,1,8.6H61.9
		C62.4,36.4,63,34.5,63.9,32.7z"/>
	<path d="M130.3,17.8c-3.8,0-7.2,0.6-10,1.7s-5.1,2.7-6.6,4.8c-1.6,2.1-2.4,4.5-2.4,7.3c0,2.6,0.6,4.6,1.9,6
		c1.2,1.5,2.9,2.5,4.9,3.2s4.1,1.3,6.4,1.7c2.2,0.5,4.4,1,6.4,1.5s3.6,1.3,4.9,2.3c1.2,1,1.9,2.5,1.9,4.4c0,2.9-1.3,5.2-3.9,6.9
		c-2.6,1.7-6.2,2.5-10.9,2.5c-3.1,0-6.1-0.5-8.9-1.4c-2.8-1-5.1-2.3-6.8-3.9l-2.4,3.4c1.7,1.7,4.2,3.1,7.5,4.1
		c3.2,1.1,6.6,1.6,10.2,1.6c4,0,7.4-0.5,10.3-1.6s5.2-2.6,6.8-4.7c1.6-2.1,2.4-4.5,2.4-7.4c0-2.6-0.6-4.5-1.9-5.9
		c-1.3-1.4-2.9-2.5-4.9-3.2s-4.1-1.3-6.4-1.7c-2.3-0.4-4.4-0.9-6.4-1.4s-3.6-1.3-4.9-2.4c-1.3-1-1.9-2.6-1.9-4.5
		c0-2.8,1.3-5.1,3.8-6.9c2.6-1.7,6.1-2.6,10.5-2.6c2.4,0,4.8,0.3,7.2,1s4.4,1.7,6.1,3l2-3.4c-1.6-1.4-3.8-2.5-6.6-3.3
		C135.9,18.2,133.1,17.8,130.3,17.8z"/>
	<path d="M171.9,17.8c-3.8,0-7.2,0.6-10,1.7s-5.1,2.7-6.6,4.8c-1.6,2.1-2.4,4.5-2.4,7.3c0,2.6,0.6,4.6,1.9,6
		c1.2,1.5,2.9,2.5,4.9,3.2s4.1,1.3,6.4,1.7c2.2,0.5,4.4,1,6.4,1.5s3.6,1.3,4.9,2.3c1.2,1,1.9,2.5,1.9,4.4c0,2.9-1.3,5.2-3.9,6.9
		c-2.6,1.7-6.2,2.5-10.9,2.5c-3.1,0-6.1-0.5-8.9-1.4c-2.8-1-5.1-2.3-6.8-3.9l-2.4,3.4c1.7,1.7,4.2,3.1,7.5,4.1
		c3.2,1.1,6.6,1.6,10.2,1.6c4,0,7.4-0.5,10.3-1.6c2.9-1.1,5.2-2.6,6.8-4.7c1.6-2.1,2.4-4.5,2.4-7.4c0-2.6-0.6-4.5-1.9-5.9
		c-1.3-1.4-2.9-2.5-4.9-3.2s-4.1-1.3-6.4-1.7c-2.3-0.4-4.4-0.9-6.4-1.4s-3.6-1.3-4.9-2.4c-1.3-1-1.9-2.6-1.9-4.5
		c0-2.8,1.3-5.1,3.8-6.9c2.6-1.7,6.1-2.6,10.5-2.6c2.4,0,4.8,0.3,7.2,1s4.4,1.7,6.1,3l2-3.4c-1.6-1.4-3.8-2.5-6.6-3.3
		C177.6,18.2,174.8,17.8,171.9,17.8z"/>
	<path d="M207.7,0c-1.1,0-2,0.4-2.7,1.1c-0.7,0.8-1.1,1.7-1.1,2.7c0,0.9,0.3,1.6,1,2.3c0.6,0.6,1.4,1,2.4,1c1.1,0,2-0.4,2.8-1.1
		s1.1-1.6,1.1-2.7c0-0.9-0.3-1.6-1-2.3S208.7,0,207.7,0z"/>
	<polygon points="193.2,63.6 197.6,63.6 206.6,18.1 202.3,18.1 	"/>
	<path d="M256.5,20.2c-2.6-1.6-5.9-2.4-10.1-2.4c-4.5,0-8.6,1-12.2,3c-2.6,1.4-4.8,3.4-6.6,6l1.7-8.6H225l-9,45.4h4.4l5-24.8
		c1.2-5.7,3.5-10,7-12.9s7.8-4.3,13-4.3c5.1,0,8.7,1.4,10.8,4.2c2.1,2.8,2.6,6.6,1.6,11.4l-5.2,26.3h4.4l5.2-26.3
		c0.8-4,0.7-7.4-0.2-10.3C260.8,24,259,21.8,256.5,20.2z"/>
	<polygon points="274.6,63.6 279,63.6 288.1,18.1 283.7,18.1 	"/>
	<path d="M291.5,1c-0.6-0.6-1.5-1-2.4-1c-1.1,0-2,0.4-2.7,1.1c-0.7,0.8-1.1,1.7-1.1,2.7c0,0.9,0.3,1.6,1,2.3c0.6,0.6,1.4,1,2.4,1
		c1.1,0,2-0.4,2.8-1.1s1.1-1.6,1.1-2.7C292.5,2.4,292.2,1.6,291.5,1z"/>
</g>
</svg>
